HIERARCHY
ROOT Hips
{
     OFFSET 22.22180 96.40440 9.97856
     CHANNELS 6 Xposition Yposition Zposition Zrotation Xrotation Yrotation
     JOINT Spine
     {
          OFFSET -0.00000 11.89050 0.00000
          CHANNELS 3 Zrotation Xrotation Yrotation
          JOINT Spine1
          {
               OFFSET -0.00000 25.65740 0.12766
               CHANNELS 3 Zrotation Xrotation Yrotation
               JOINT HEad
               {
                    OFFSET 0.00000 8.73416 0.01134
                    CHANNELS 3 Zrotation Xrotation Yrotation
                    End Site
                    {
                         OFFSET -0.29000 12.77420 2.51395
                    }
               }
               JOINT LeftShoulder1
               {
                    OFFSET 8.99000 -0.36225 -0.22000
                    CHANNELS 3 Zrotation Xrotation Yrotation
                    JOINT LeftArm
                    {
                         OFFSET 10.28270 -0.00338 0.32212
                         CHANNELS 3 Zrotation Xrotation Yrotation
                         JOINT LeftForeArm
                         {
                              OFFSET 32.76690 0.09914 -1.42434
                              CHANNELS 3 Zrotation Xrotation Yrotation
                              JOINT LeftHand
                              {
                                   OFFSET 27.56430 0.08536 1.02216
                                   CHANNELS 3 Zrotation Xrotation Yrotation
                                   End Site
                                   {
                                        OFFSET 16.74430 -0.60000 1.50291
                                   }
                              }
                         }
                    }
               }
               JOINT RightShoulder
               {
                    OFFSET -8.99000 -0.36225 -0.22000
                    CHANNELS 3 Zrotation Xrotation Yrotation
                    JOINT RightArm
                    {
                         OFFSET -10.28270 -0.00338 0.32212
                         CHANNELS 3 Zrotation Xrotation Yrotation
                         JOINT RightForeArm
                         {
                              OFFSET -32.89710 0.09914 -1.42434
                              CHANNELS 3 Zrotation Xrotation Yrotation
                              JOINT RightHand
                              {
                                   OFFSET -27.49210 0.08536 1.02216
                                   CHANNELS 3 Zrotation Xrotation Yrotation
                                   End Site
                                   {
                                        OFFSET -16.63120 -0.60000 1.50291
                                   }
                              }
                         }
                    }
               }
          }
     }
     JOINT LeftUpLeg
     {
          OFFSET 8.94580 -8.66707 0.10165
          CHANNELS 3 Zrotation Xrotation Yrotation
          JOINT LeftLeg
          {
               OFFSET 0.00000 -44.42270 1.37270
               CHANNELS 3 Zrotation Xrotation Yrotation
               JOINT LeftFoot
               {
                    OFFSET -0.25355 -42.09240 -1.46059
                    CHANNELS 3 Zrotation Xrotation Yrotation
                    JOINT LeftToes
                    {
                         OFFSET -0.04000 -4.41509 8.49910
                         CHANNELS 3 Zrotation Xrotation Yrotation
                         End Site
                         {
                              OFFSET 0.08000 -0.04745 9.77979
                         }
                    }
               }
          }
     }
     JOINT RightUpLeg
     {
          OFFSET -8.94580 -8.66707 0.10165
          CHANNELS 3 Zrotation Xrotation Yrotation
          JOINT RightLeg
          {
               OFFSET 0.00000 -44.42270 1.37270
               CHANNELS 3 Zrotation Xrotation Yrotation
               JOINT RightFoot
               {
                    OFFSET 0.25355 -42.09240 -1.46059
                    CHANNELS 3 Zrotation Xrotation Yrotation
                    JOINT RightToes
                    {
                         OFFSET 0.04000 -4.41509 8.49910
                         CHANNELS 3 Zrotation Xrotation Yrotation
                         End Site
                         {
                              OFFSET -0.08000 -0.13745 9.77979
                         }
                    }
               }
          }
     }
}
MOTION
Frames: 21
Frame Time: 0.01667
22.22180 96.40440 9.97856 -2.81893 -10.34060 -22.07580 -5.02109 10.15180 -1.43444 -2.87046 19.99480 -3.73917 1.99817 -5.93681 5.36680 -0.00000 -0.00000 0.00000 -101.63500 -50.34620 -83.32350 -21.30270 43.54940 -84.10800 22.13360 6.36907 -14.36780 24.41180 0.54585 -0.24411 76.83240 -6.01128 65.67390 17.03870 33.12250 102.04400 15.76170 11.99770 10.33700 12.87930 -3.68124 -7.41198 -19.36950 10.30510 53.65510 -0.84025 11.45300 0.05523 2.27425 -29.12900 -62.99670 -26.69210 10.64020 17.03840 35.52370 -0.09151 -39.67990 -41.89800 6.64480 5.39366 11.43400 -53.72410 16.56570 
22.09280 96.44680 10.15060 -2.72258 -10.22230 -23.05770 -5.06583 10.07560 -1.55710 -2.81009 19.85330 -4.04705 1.90610 -6.05048 5.35208 -0.00000 -0.00000 0.00000 -100.55300 -50.74420 -82.59270 -20.96430 42.53890 -84.41600 21.72620 6.52702 -13.89750 24.62900 0.70950 0.36304 76.66400 -6.65881 66.23060 18.08030 33.01800 101.18800 16.56630 12.01670 9.77822 12.69680 -3.26185 -6.53562 -19.11770 10.17110 52.76740 -0.56756 10.19090 0.01131 3.03021 -27.67500 -59.81310 -26.81060 10.51250 16.50260 36.11590 -0.29238 -40.02320 -42.45860 5.45970 5.00986 9.85938 -51.88190 13.97300 
22.14330 96.82790 10.30510 -3.38872 -9.79234 -23.70860 -4.02108 9.96572 -1.83377 -2.78582 19.73170 -4.16881 2.05362 -5.69712 4.04796 -0.00000 -0.00000 0.00000 -102.04900 -51.65060 -83.70900 -22.53810 44.31480 -82.97570 22.04710 6.36028 -14.48970 25.11780 0.67349 0.19250 76.76310 -6.81030 66.21830 17.45760 32.96620 101.44900 16.54000 12.08270 10.23670 13.59250 -2.57505 -7.88923 -19.46640 8.55795 53.95430 -0.52858 9.68582 0.00598 3.63726 -26.01070 -59.23520 -25.92240 10.35480 15.96390 36.47860 0.14940 -39.60010 -38.03970 3.95747 3.91158 7.55756 -45.35130 12.17570 
21.98870 96.85540 10.40480 -3.44644 -9.98864 -24.88690 -4.02826 10.10160 -1.72991 -2.48991 20.00330 -4.09593 1.16471 -5.93149 3.34907 -0.00000 -0.00000 0.00000 -100.67300 -51.02290 -82.64300 -21.40370 43.10390 -83.72360 22.04160 6.32243 -14.69130 23.22180 0.36885 -0.88033 77.78630 -5.62197 66.38210 16.80510 32.41580 101.95900 16.24340 11.98550 9.83746 13.42170 -1.97512 -7.45908 -19.21290 8.70946 53.74570 -0.98630 9.08410 0.07347 4.00337 -25.06360 -57.83030 -26.08670 10.70390 15.18750 37.04320 -0.24082 -41.11990 -38.03170 3.51091 3.75490 7.62128 -45.05060 12.63010 
21.74910 96.87400 10.55340 -3.59270 -9.49030 -26.28910 -4.18226 9.88682 -1.64755 -2.78364 19.59310 -3.91656 2.12456 -5.23439 2.82186 -0.00000 -0.00000 0.00000 -98.89190 -51.26720 -82.00820 -22.22100 42.60460 -83.33720 22.02270 6.40708 -14.26780 24.88610 0.47875 -0.52140 77.66010 -6.97877 66.74250 18.03110 33.26760 100.95200 17.72470 12.09410 9.36766 13.89300 -2.05858 -7.91521 -19.51420 8.74725 55.00710 -1.15534 8.08275 0.09408 4.31532 -24.14160 -57.19340 -25.81730 10.23750 14.40010 37.69260 -0.49165 -42.80630 -37.60340 2.80927 3.46618 7.07495 -44.42480 11.27310 
21.42830 96.70310 10.51550 -3.37266 -9.51945 -27.58570 -4.91998 9.88646 -1.73527 -2.93060 19.57140 -4.34565 1.45163 -5.04029 2.81209 -0.00000 -0.00000 0.00000 -97.51860 -52.14010 -81.22240 -21.09770 41.71580 -84.52870 21.61060 6.45198 -14.39770 25.07700 0.61431 -0.02504 77.27520 -7.16136 66.88890 18.24850 33.24480 100.68100 17.31450 12.05430 9.42877 13.66270 -2.28779 -7.49895 -19.42210 9.89980 55.24010 -2.43596 7.21728 0.25639 4.72540 -22.86880 -55.96520 -26.07330 10.03160 13.84130 38.59650 -0.80164 -44.67280 -39.36900 1.01626 2.99776 6.43984 -42.66630 10.38200 
21.12920 96.72550 10.56410 -3.39893 -9.42575 -29.43380 -5.05495 9.81927 -1.72196 -3.06677 19.46860 -4.34428 2.08865 -6.02932 2.92766 -0.00000 -0.00000 0.00000 -100.95300 -54.52060 -83.82740 -22.69400 44.61190 -83.68830 21.91160 6.45490 -14.11520 24.36350 0.84466 0.89945 78.05570 -7.67879 67.05490 16.99300 33.00070 101.12500 16.90890 12.07840 9.90328 13.74440 -1.69643 -6.73589 -19.30410 9.84685 55.25200 -2.37087 6.48818 0.23738 4.91878 -22.23310 -53.99160 -25.99180 9.77840 12.99990 38.99150 -1.06493 -45.80580 -39.53190 1.22705 3.08856 6.08720 -43.17480 8.70228 
20.91840 96.85930 10.71180 -3.61266 -8.93962 -30.84480 -4.55863 9.63513 -1.96216 -2.93656 19.14660 -4.67131 1.71962 -5.26687 3.08103 -0.00000 -0.00000 0.00000 -99.85430 -55.33600 -82.89740 -23.46550 43.88400 -83.67740 21.46670 6.43902 -14.59730 23.86460 0.84636 0.95471 78.67480 -7.37158 67.02610 17.25080 32.87660 100.88100 17.75150 12.16580 9.79166 14.31890 -1.54698 -8.70170 -19.94950 9.18475 57.14530 -3.22504 5.10283 0.31223 5.67295 -19.32110 -52.14280 -25.46890 9.72594 12.31170 38.95990 -1.72136 -46.94960 -36.79000 0.96119 2.75964 6.44587 -41.81090 11.10170 
20.59100 96.63560 10.70790 -3.87325 -8.92992 -32.64010 -4.83571 9.52424 -1.93393 -2.47731 18.91820 -4.84526 1.27668 -5.62863 3.17277 -0.00000 -0.00000 0.00000 -102.05400 -57.28850 -83.77140 -23.68270 45.83910 -83.82850 22.34600 6.26791 -14.70160 22.20480 0.60555 0.13407 80.21980 -6.29097 66.80210 16.31720 33.15810 101.56200 18.16100 12.06970 8.90066 14.51190 -1.71605 -9.13680 -20.01720 10.47470 59.49220 -3.46411 4.58247 0.32634 5.47111 -20.13450 -52.48290 -25.26220 9.79181 11.28330 39.50230 -1.99242 -48.04780 -38.38510 0.38645 2.69106 6.34852 -41.88900 10.66300 
20.26220 96.71080 10.76600 -4.41210 -8.71063 -34.54150 -4.85861 9.57506 -1.78664 -3.09625 19.07120 -4.40938 2.54016 -5.92782 3.27478 -0.00000 -0.00000 0.00000 -102.13500 -58.14910 -85.01980 -24.95530 46.81780 -82.97210 22.73790 6.27461 -14.32730 23.61920 0.49165 -0.41183 79.58330 -6.47706 67.20610 17.19700 33.16770 100.84300 18.44240 12.21950 9.59961 15.22360 -0.93854 -10.06420 -20.45500 9.99039 60.58960 -3.75051 3.20930 0.32054 6.05049 -17.55790 -50.55430 -24.56600 9.81513 10.83920 39.43500 -2.22845 -47.59510 -36.64620 0.43022 2.56892 4.94502 -38.42380 7.62303 
19.80760 96.49620 10.73290 -4.55741 -8.60360 -36.54200 -4.94398 9.44063 -1.87546 -2.81010 18.81890 -4.70706 1.72079 -5.55155 3.79408 -0.00000 -0.00000 0.00000 -102.38900 -59.59130 -84.70000 -26.11690 46.32910 -82.65840 21.84090 6.35322 -14.71130 22.39430 0.61549 0.16100 79.23300 -5.24740 66.71280 16.67230 32.58810 101.38900 16.86990 11.89910 8.76825 15.56180 -1.09779 -11.91590 -21.30020 10.84160 63.29410 -5.59328 1.67274 0.43005 6.55913 -14.98460 -49.13540 -24.62660 9.16623 11.75200 40.22920 -2.37090 -49.52980 -36.02130 -0.60272 2.17814 5.30821 -37.33280 10.25840 
19.46470 96.50570 10.68940 -5.13136 -8.31722 -38.32320 -4.07791 9.40974 -2.10878 -2.65711 18.79720 -4.92940 1.59350 -5.97291 3.91161 -0.00000 -0.00000 0.00000 -104.33500 -61.16680 -86.25070 -25.53930 47.57280 -83.55810 22.23280 6.32325 -14.51740 21.71630 0.59889 0.14263 80.14010 -4.60732 66.55100 16.62200 32.94970 101.37800 17.07610 11.89110 8.56376 16.42460 -0.62237 -12.99240 -21.86740 10.68200 65.66780 -6.13412 1.23673 0.45359 6.69466 -14.36240 -49.11850 -23.60370 9.60617 9.83124 39.38650 -2.34884 -47.97190 -37.37140 0.40894 2.61882 5.63457 -38.86470 10.33040 
19.16280 96.29430 10.60910 -5.81283 -7.98016 -40.37680 -3.72499 9.41018 -2.14007 -2.27790 18.80820 -4.98998 1.49448 -6.19382 3.77529 -0.00000 -0.00000 0.00000 -104.78400 -62.36440 -86.48610 -26.67080 47.84380 -82.88620 22.54540 6.17399 -15.00310 21.14720 0.61274 0.24603 80.24720 -4.32334 66.59240 16.20350 33.01350 101.50000 16.90560 11.92630 8.91795 17.13710 -1.10027 -14.93340 -22.77740 12.22130 69.00610 -8.71119 0.68420 0.61589 6.85185 -13.06240 -47.64530 -22.95980 9.33080 9.54417 39.36590 -1.88560 -46.88170 -38.86430 0.88992 2.90931 5.70934 -39.12860 10.42050 
18.69390 96.38680 10.44720 -6.18314 -7.76094 -42.22670 -3.99222 9.33228 -2.11500 -2.33450 18.66520 -5.00578 1.45425 -5.83504 4.26167 -0.00000 -0.00000 0.00000 -105.79400 -63.81100 -87.30080 -27.97410 48.62000 -82.53190 22.03550 6.34964 -14.55530 21.31380 0.70655 0.63411 80.35570 -4.04483 66.19010 14.58940 32.60540 102.50200 16.21840 11.85860 9.00028 18.01400 -0.32827 -15.30290 -23.46830 11.44520 70.19270 -8.27857 -0.14949 0.52922 7.08032 -11.01030 -45.84600 -22.48140 9.22285 9.35021 38.68090 -1.45167 -44.65260 -37.60980 3.06832 3.55620 6.70906 -41.50560 12.38420 
18.28350 96.12030 10.16290 -6.53259 -7.86738 -43.95280 -4.34650 9.36709 -2.16904 -2.45658 18.74950 -5.24566 2.12071 -6.35977 5.19691 -0.00000 -0.00000 0.00000 -106.05000 -65.02280 -87.73830 -28.16830 48.91070 -82.55640 22.22760 6.27530 -14.76890 22.30820 0.63339 0.24113 79.23140 -3.86793 66.81590 16.05150 32.42690 101.56100 16.81410 11.85650 8.53138 18.51220 -0.57452 -17.87380 -24.93560 12.10500 73.87820 -8.28708 -0.50930 0.50600 6.98836 -10.97010 -44.89310 -22.68090 9.04617 9.65602 38.99840 -1.22492 -44.07490 -39.10090 4.11965 4.09084 8.39932 -45.88010 14.49120 
17.92300 96.07730 9.85616 -7.04373 -7.60894 -45.47750 -4.12720 9.61853 -2.15995 -2.13165 19.25890 -5.21979 2.15406 -7.70064 5.30924 -0.00000 -0.00000 0.00000 -119.08100 -66.77550 -98.73280 -30.24710 54.32270 -81.10530 23.63060 5.91023 -15.35350 21.75970 0.43127 -0.56574 79.67800 -3.18158 67.49370 15.94600 32.43710 101.63600 16.65280 11.88140 8.81579 19.40230 -1.29958 -19.96760 -26.45080 13.17520 78.80640 -9.31552 -0.37121 0.58095 7.51624 -9.43951 -47.07690 -21.91000 8.84861 8.79301 38.42430 -0.26360 -42.91720 -38.55960 5.30965 4.44906 11.04340 -48.74040 19.86880 
17.56910 95.93320 9.45094 -7.14586 -7.48585 -47.16220 -5.28591 9.61311 -1.98417 -2.10578 19.26700 -5.29136 2.20322 -7.56418 5.14189 -0.00000 -0.00000 0.00000 -118.12300 -67.14920 -97.84430 -32.78380 53.56720 -79.23740 23.40080 5.89868 -15.61020 21.72640 0.33995 -0.94880 79.66730 -2.51948 67.74700 16.64370 32.48270 101.04900 17.22950 11.90450 8.53819 20.00090 -2.12669 -21.66480 -28.24210 13.89830 81.81030 -9.07179 0.30498 0.61466 7.23163 -9.41338 -44.63360 -21.95570 8.21642 8.39948 38.95700 0.25023 -43.29310 -39.67170 5.75795 4.75430 13.40550 -51.29510 23.70450 
17.24750 96.14380 9.09118 -8.04960 -7.35020 -49.04540 -5.03446 9.61662 -2.26063 -2.20732 19.30980 -5.77518 2.77874 -6.65787 6.46960 -0.00000 -0.00000 0.00000 -119.27000 -69.11690 -98.95740 -34.19940 53.50010 -78.33620 22.97640 5.85704 -16.19810 22.19820 0.52427 -0.20162 79.27910 -2.77508 67.66160 15.51470 32.73300 101.33500 15.91080 11.89860 9.52367 21.43820 -1.78898 -22.99290 -30.03360 13.58040 84.62760 -8.07344 1.04794 0.59255 7.31959 -8.13069 -43.60440 -20.42770 8.16645 8.05533 37.80210 1.17108 -41.99650 -41.52830 6.46971 5.27386 12.81050 -51.89180 21.58900 
16.87300 96.02630 8.62054 -8.03978 -7.73661 -50.55240 -6.04618 9.76062 -1.99002 -2.53698 19.62480 -5.53150 3.25150 -7.30988 6.34288 -0.00000 -0.00000 0.00000 -122.14200 -68.91300 -101.50500 -35.63780 54.66340 -77.38120 23.05340 5.83498 -16.23580 22.36770 0.44472 -0.53880 79.15560 -2.07725 67.61220 15.83480 32.17920 101.67900 16.15400 11.85780 9.04643 21.51910 -2.68595 -23.73620 -31.56110 14.91620 88.02300 -6.43096 2.84226 0.55663 7.24193 -9.44763 -44.77120 -20.70420 7.83951 8.35289 38.18090 1.60733 -41.86780 -43.55100 6.08988 5.40826 13.22710 -53.05510 21.53380 
16.48570 96.11470 8.23271 -8.10764 -7.91987 -52.42430 -6.68835 9.81275 -1.87779 -2.77789 19.76410 -5.49831 3.16276 -7.33216 6.67515 -0.00000 -0.00000 0.00000 -129.00301 -69.62080 -107.45500 -37.63360 56.23410 -75.79770 22.76880 5.83258 -16.51390 22.03800 0.74822 0.74005 79.46270 -3.11012 68.04870 16.54840 32.37580 100.93300 16.85510 11.90870 8.84136 22.02220 -2.86972 -22.96500 -32.83990 15.48350 90.05130 -4.95569 3.41742 0.44253 7.91072 -7.18635 -46.77140 -20.40650 7.47240 8.09934 37.39060 2.19566 -42.23570 -44.79560 6.85806 5.90109 15.98990 -55.83750 25.31480 
16.29390 96.20850 7.86153 -8.64401 -8.03655 -54.02540 -7.18041 10.01430 -1.49813 -2.82357 20.20110 -4.93256 4.05235 -8.77743 6.29982 -0.00000 -0.00000 0.00000 -131.38300 -68.89440 -109.48600 -37.95710 57.38120 -75.66810 22.65620 5.98178 -15.87240 21.65760 0.21199 -1.48703 80.05650 -1.25390 68.13550 15.82560 32.21350 101.33200 16.98910 12.01600 9.43545 22.54460 -3.05109 -22.57420 -33.74580 16.31200 90.73110 -3.88234 4.37814 0.36532 8.23295 -5.77950 -47.13810 -19.87900 7.47577 7.86392 36.81080 2.82939 -41.30620 -45.27030 7.53921 6.25741 17.27910 -56.95640 27.00810 
